<svg xmlns="http://www.w3.org/2000/svg" xmlns:svg="http://www.w3.org/2000/svg" id="svg2" width="744.094" height="1052.362" version="1.1"><metadata id="metadata7"/><g id="layer1"><rect style="fill:#e6e6e6;fill-opacity:1;stroke:#000;stroke-width:3;stroke-linecap:round;stroke-linejoin:round;stroke-miterlimit:4;stroke-opacity:1;stroke-dasharray:none;stroke-dashoffset:0" id="rect2816" width="317.143" height="320" x="168.571" y="338.076" rx="0" ry="0"/><rect style="fill:#e6e6e6;fill-opacity:1;stroke:#000;stroke-width:3.00563788;stroke-linecap:round;stroke-linejoin:round;stroke-miterlimit:4;stroke-opacity:1;stroke-dasharray:none;stroke-dashoffset:0" id="rect2824" width="307.068" height="320" x="169.206" y="323.566" rx="0" ry="0" transform="matrix(0.99625201,0.08649817,0,1,0,0)"/><rect id="rect2826" width="299.863" height="320" x="170.296" y="314.104" rx="0" ry="0" transform="matrix(0.98987326,0.141954,0,1,0,0)" style="fill:#e6e6e6;fill-opacity:1;stroke:#000;stroke-width:3.01530671;stroke-linecap:round;stroke-linejoin:round;stroke-miterlimit:4;stroke-opacity:1;stroke-dasharray:none;stroke-dashoffset:0"/><rect id="rect3603" width="291.26" height="320" x="171.843" y="304.97" rx="0" ry="0" transform="matrix(0.98095972,0.1942113,0,1,0,0)" style="fill:#e6e6e6;fill-opacity:1;stroke:#000;stroke-width:3.02897477;stroke-linecap:round;stroke-linejoin:round;stroke-miterlimit:4;stroke-opacity:1;stroke-dasharray:none;stroke-dashoffset:0"/><path style="fill:#e6e6e6;fill-opacity:1;stroke:#000;stroke-width:3;stroke-linecap:round;stroke-linejoin:round;stroke-miterlimit:4;stroke-opacity:1;stroke-dasharray:none;stroke-dashoffset:0" id="rect3605" d="m 187.61319,420.75502 c 9.92708,1.80191 19.85417,3.60381 29.78125,5.40572 0,-11.40514 0,-22.81027 0,-34.21541 -9.92708,-1.80191 -19.85417,-3.60381 -29.78125,-5.40572 0,11.40513 0,22.81027 0,34.21541 z"/><path id="path3735" d="m 187.61319,533.89211 c 9.92708,1.80191 19.85417,3.60381 29.78125,5.40572 0,-11.40514 0,-22.81027 0,-34.21541 -9.92708,-1.80191 -19.85417,-3.60381 -29.78125,-5.40572 0,11.40513 0,22.81027 0,34.21541 z" style="fill:#e6e6e6;fill-opacity:1;stroke:#000;stroke-width:3;stroke-linecap:round;stroke-linejoin:round;stroke-miterlimit:4;stroke-opacity:1;stroke-dasharray:none;stroke-dashoffset:0"/><path style="fill:#e6e6e6;fill-opacity:1;stroke:#000;stroke-width:3;stroke-linecap:round;stroke-linejoin:round;stroke-miterlimit:4;stroke-opacity:1;stroke-dasharray:none;stroke-dashoffset:0" id="path3741" d="m 190.39377,506.65005 c 0.75899,0.68789 1.49311,1.40206 2.18659,2.15586 1.04564,1.16383 1.98061,2.42061 2.87537,3.70224 0.88891,1.23011 1.5917,2.57322 2.21898,3.95083 0.51358,1.13644 0.95191,2.30157 1.29221,3.50096 0.27587,0.95401 0.43736,1.93037 0.526,2.91768 0.0626,0.77245 0.0662,1.54771 0.0674,2.32215 0.0259,0.73252 -0.0448,1.45977 -0.14168,2.18453 -0.0791,0.59156 -0.17445,1.18061 -0.28351,1.76733 -0.0818,0.61025 0.11679,0.33683 -0.68728,0.25488 0.59483,-0.53029 1.00581,-1.22734 1.42829,-1.8939 1.52576,-2.47344 3.29684,-4.78641 5.01499,-7.12713 3.3565,-4.57363 6.84295,-9.04957 10.46073,-13.41901 3.17316,-3.86201 6.63032,-7.46044 10.39753,-10.74204 2.52798,-2.14505 5.25617,-4.02957 7.99308,-5.89317 0,0 0.65985,0.35822 0.65985,0.35822 l 0,0 c -2.7495,1.83372 -5.48864,3.69118 -8.03032,5.8102 -3.78772,3.24157 -7.26211,6.80867 -10.44807,10.6464 -3.62664,4.34088 -7.11298,8.79845 -10.39492,13.40687 -1.64993,2.33738 -3.31346,4.67201 -4.7431,7.15369 -0.44159,0.72681 -0.86585,1.47822 -1.45456,2.09912 -1.2338,0.35104 -1.28633,0.43487 -1.17098,-0.61828 0.11695,-0.57384 0.22523,-1.1495 0.30189,-1.73033 0.0955,-0.69623 0.18508,-1.39313 0.15541,-2.09802 0.001,-0.75735 -0.001,-1.51531 -0.048,-2.27151 -0.0715,-0.94967 -0.21479,-1.888 -0.47641,-2.80595 -0.32217,-1.17194 -0.73332,-2.31334 -1.23241,-3.42243 -0.60735,-1.34522 -1.28611,-2.65887 -2.14994,-3.86059 -0.87979,-1.25757 -1.80104,-2.48969 -2.84301,-3.6191 -0.68832,-0.72803 -1.4075,-1.43076 -2.19298,-2.05461 0,0 0.71891,-0.67489 0.71891,-0.67489 z"/><text style="font-size:34.10958862px;font-style:normal;font-variant:normal;font-weight:400;font-stretch:normal;fill:#000;fill-opacity:1;stroke:none;font-family:Scriptina;-inkscape-font-specification:Scriptina" id="text3743" x="162.419" y="518.483" transform="matrix(1.3944821,0.28478379,0,0.7171121,0,0)" xml:space="preserve"><tspan id="tspan3745" x="162.419" y="518.483" style="font-style:normal;font-variant:normal;font-weight:400;font-stretch:normal;font-family:Serif;-inkscape-font-specification:Serif">get milk</tspan></text><text style="font-size:34.10958862px;font-style:normal;font-variant:normal;font-weight:400;font-stretch:normal;fill:#000;fill-opacity:1;stroke:none;font-family:Scriptina;-inkscape-font-specification:Scriptina" id="text3743-0" x="165.467" y="674.995" transform="matrix(1.3944821,0.28478379,0,0.7171121,0,0)" xml:space="preserve"><tspan id="tspan3745-2" x="165.467" y="674.995" style="font-style:normal;font-variant:normal;font-weight:400;font-stretch:normal;font-family:Serif;-inkscape-font-specification:Serif">buy cow</tspan></text></g></svg>